<svg width="131" height="47" viewBox="0 0 131 47" fill="none" xmlns="http://www.w3.org/2000/svg">
<path fill-rule="evenodd" clip-rule="evenodd" d="M124.775 34.4686L124.74 34.4305C124.072 33.7152 123.754 32.8271 123.754 31.8672V20.018C123.754 18.498 123.379 17.6853 122.929 17.2502L122.92 17.2416L122.912 17.2328C122.379 16.7003 121.665 16.3908 120.624 16.3908C119.584 16.3908 118.803 16.7306 118.166 17.4009C117.552 18.0748 117.204 18.9605 117.204 20.1837V31.8672C117.204 32.8271 116.885 33.7152 116.217 34.4305L116.2 34.4496L116.181 34.468C115.465 35.1838 114.546 35.4903 113.58 35.4903C112.621 35.4903 111.732 35.1717 111.017 34.5041L110.979 34.4686L110.944 34.4305C110.276 33.7152 109.957 32.8271 109.957 31.8672V20.018C109.957 18.498 109.583 17.6853 109.133 17.2502L109.124 17.2416L109.115 17.2328C108.583 16.7003 107.869 16.3908 106.827 16.3908C105.783 16.3908 105 16.7334 104.362 17.4091C103.723 18.0858 103.366 18.9681 103.366 20.1837V31.8672C103.366 32.8271 103.047 33.7152 102.38 34.4305L102.362 34.4496L102.343 34.468C101.628 35.1838 100.708 35.4903 99.7427 35.4903C98.7828 35.4903 97.8946 35.1717 97.1793 34.5041L97.1413 34.4686L97.1057 34.4305C96.4381 33.7152 96.1195 32.8271 96.1195 31.8672V13.4306C96.1195 12.4648 96.426 11.5456 97.1419 10.8298L97.1603 10.8114L97.1793 10.7936C97.8946 10.126 98.7828 9.80742 99.7427 9.80742C100.708 9.80742 101.628 10.1139 102.343 10.8298C102.389 10.8749 102.432 10.9208 102.474 10.9676C102.489 10.958 102.505 10.9485 102.52 10.9391C104.05 10.0081 105.777 9.55884 107.656 9.55884C109.458 9.55884 111.116 9.95635 112.586 10.7917C113.208 11.1449 113.768 11.5677 114.267 12.056C114.767 11.6259 115.315 11.244 115.908 10.9114L115.914 10.9083L115.92 10.9053C117.576 9.99582 119.433 9.55884 121.452 9.55884C123.255 9.55884 124.913 9.95635 126.383 10.7917C127.878 11.6411 129.017 12.8939 129.802 14.4896C130.625 16.0783 131 17.9416 131 20.018V31.8672C131 32.8271 130.681 33.7152 130.014 34.4305L129.996 34.4496L129.978 34.468C129.262 35.1838 128.343 35.4903 127.377 35.4903C126.417 35.4903 125.529 35.1717 124.814 34.5041L124.775 34.4686Z" fill="white"/>
<path fill-rule="evenodd" clip-rule="evenodd" d="M29.2104 30.8739L29.2133 30.8801L29.2162 30.8864C29.8423 32.2375 30.7379 33.3499 31.9113 34.1782C33.1202 35.0315 34.5055 35.4489 36.0138 35.4489H36.0966C37.1596 35.4489 38.1753 35.1988 39.0226 34.5745C39.9009 33.9273 40.4241 32.994 40.4241 31.8672C40.4241 30.9498 40.1455 30.0746 39.5021 29.37C38.8593 28.6335 37.9909 28.2855 37.0495 28.2855H36.0159C35.9927 28.2676 35.9226 28.2047 35.8267 28.0404C35.6123 27.6728 35.4524 27.1145 35.4524 26.2741V3.653C35.4524 2.6936 35.1327 1.79626 34.4301 1.09364C33.7275 0.391019 32.8301 0.0712891 31.8707 0.0712891C30.9113 0.0712891 30.014 0.391019 29.3114 1.09364C28.6087 1.79626 28.289 2.6936 28.289 3.653V26.2741C28.289 27.9438 28.5833 29.4875 29.2104 30.8739Z" fill="white"/>
<path fill-rule="evenodd" clip-rule="evenodd" d="M5.88467 33.8912L5.8768 33.8862C4.05482 32.7239 2.61079 31.166 1.55324 29.2375L1.54631 29.2249L1.53962 29.2121C0.502797 27.2327 0 25.0268 0 22.6282C0 20.2074 0.554338 17.9841 1.69048 15.9958L1.69493 15.988L1.69947 15.9803C2.84985 14.0215 4.4015 12.4667 6.34178 11.3393C8.32863 10.1732 10.5419 9.60034 12.945 9.60034C15.3461 9.60034 17.5482 10.1724 19.5114 11.342C21.4507 12.4698 22.9894 14.0261 24.1122 15.9879C25.1152 17.6986 25.6775 19.585 25.8151 21.6226L25.8486 21.6371V31.8672C25.8486 32.8588 25.4939 33.759 24.7848 34.468C24.0822 35.1706 23.1849 35.4904 22.2255 35.4904C21.2655 35.4904 20.3774 35.1718 19.6621 34.5042L19.624 34.4687L19.5885 34.4306C19.3186 34.1414 19.1057 33.8239 18.9478 33.4848C18.7554 33.6234 18.5581 33.7572 18.356 33.8862L18.3481 33.8912L18.3402 33.8961C16.4824 35.0492 14.3938 35.6147 12.1164 35.6147C9.83902 35.6147 7.75041 35.0492 5.89259 33.8961L5.88467 33.8912ZM17.9971 25.8868C18.5029 24.9385 18.768 23.8629 18.768 22.6282C18.768 21.3574 18.4994 20.2868 18.0007 19.3763L17.9972 19.3697L17.9937 19.3632C17.4811 18.4049 16.798 17.6859 15.9382 17.17L15.9264 17.1629L15.9148 17.1557C15.0695 16.6274 14.0945 16.3495 12.945 16.3495C11.8294 16.3495 10.8466 16.6244 9.96105 17.1644L9.95644 17.1672L9.95182 17.17C9.08763 17.6885 8.38624 18.4137 7.84495 19.3816C7.34819 20.2909 7.08056 21.3599 7.08056 22.6282C7.08056 23.8577 7.34342 24.9294 7.84505 25.8747C8.38229 26.8084 9.08329 27.5392 9.95658 28.0891C10.8404 28.6021 11.8255 28.8656 12.945 28.8656C14.101 28.8656 15.0807 28.598 15.9265 28.0934C16.8008 27.5443 17.4868 26.8162 17.9971 25.8868Z" fill="white"/>
<path fill-rule="evenodd" clip-rule="evenodd" d="M64.3197 29.8499C62.798 32.5291 60.3877 34.6376 57.4895 35.7746C57.2107 36.3939 56.7598 36.9599 56.1506 37.4583C55.0137 38.3884 53.5309 38.8918 52.2958 38.8918C50.5974 38.8918 49.5314 38.7086 48.6601 38.4167C47.7625 38.1159 46.865 37.6324 45.5257 36.751C43.8498 35.6481 41.5973 36.1126 40.4944 37.7884C39.3916 39.4643 39.8561 41.7168 41.5319 42.8197C43.0538 43.8212 44.5675 44.7072 46.3519 45.3051C48.1626 45.9119 50.0495 46.1567 52.2958 46.1567C55.2628 46.1567 58.3591 45.0378 60.7507 43.0813C63.1912 41.0848 65.0865 38.0395 65.0865 34.2219C65.0865 32.6863 64.8159 31.214 64.3197 29.8499Z" fill="white"/>
<path fill-rule="evenodd" clip-rule="evenodd" d="M52.2957 17.0559C49.2439 17.0559 46.77 19.5299 46.77 22.5817C46.77 25.6334 49.2439 28.1074 52.2957 28.1074C55.3475 28.1074 57.8214 25.6334 57.8214 22.5817C57.8214 19.5299 55.3475 17.0559 52.2957 17.0559ZM63.5073 16.4203C64.4609 15.7656 65.0864 14.6676 65.0864 13.4235C65.0864 11.4173 63.4601 9.79102 61.4539 9.79102H52.2957C45.2316 9.79102 39.5051 15.5176 39.5051 22.5817C39.5051 29.6458 45.2316 35.3723 52.2957 35.3723C59.3598 35.3723 65.0864 29.6458 65.0864 22.5817C65.0864 20.3479 64.5137 18.2478 63.5073 16.4203Z" fill="white"/>
<path fill-rule="evenodd" clip-rule="evenodd" d="M72.8165 33.8912L72.8086 33.8862C70.9866 32.7239 69.5426 31.166 68.4851 29.2375L68.4781 29.2249L68.4714 29.2121C67.4346 27.2327 66.9318 25.0268 66.9318 22.6282C66.9318 20.2074 67.4862 17.9841 68.6223 15.9958L68.6268 15.988L68.6313 15.9803C69.7817 14.0215 71.3333 12.4667 73.2736 11.3393C75.2605 10.1732 77.4737 9.60034 79.8768 9.60034C82.2779 9.60034 84.48 10.1724 86.4433 11.342C88.3825 12.4698 89.9212 14.0261 91.044 15.9879C92.0471 17.6986 92.6093 19.585 92.7469 21.6226L92.7804 21.6371V31.8672C92.7804 32.8588 92.4257 33.759 91.7166 34.468C91.014 35.1706 90.1167 35.4904 89.1573 35.4904C88.1974 35.4904 87.3092 35.1718 86.5939 34.5042L86.5559 34.4687L86.5203 34.4306C86.2504 34.1414 86.0375 33.8239 85.8797 33.4848C85.6872 33.6234 85.4899 33.7572 85.2878 33.8862L85.28 33.8912L85.272 33.8961C83.4142 35.0492 81.3256 35.6147 79.0482 35.6147C76.7708 35.6147 74.6822 35.0492 72.8244 33.8961L72.8165 33.8912ZM84.929 25.8868C85.4348 24.9385 85.6999 23.8629 85.6999 22.6282C85.6999 21.3574 85.4312 20.2868 84.9326 19.3763L84.929 19.3697L84.9255 19.3632C84.4129 18.4049 83.7298 17.6859 82.87 17.17L82.8583 17.1629L82.8466 17.1557C82.0013 16.6274 81.0263 16.3495 79.8768 16.3495C78.7612 16.3495 77.7785 16.6244 76.8929 17.1644L76.8883 17.1672L76.8836 17.17C76.0195 17.6885 75.3181 18.4137 74.7768 19.3816C74.28 20.2909 74.0124 21.3599 74.0124 22.6282C74.0124 23.8577 74.2752 24.9294 74.7769 25.8747C75.3141 26.8084 76.0151 27.5392 76.8884 28.0891C77.7723 28.6021 78.7573 28.8656 79.8768 28.8656C81.0328 28.8656 82.0125 28.598 82.8584 28.0934C83.7326 27.5443 84.4186 26.8162 84.929 25.8868Z" fill="white"/>
</svg>
