<svg width="77" height="77" viewBox="0 0 77 77" fill="none" xmlns="http://www.w3.org/2000/svg">
<path d="M41.9296 44.5295L73.2651 13.8494C74.9142 12.2349 74.8586 9.56361 73.1437 8.01909L68.1419 3.51401C66.5728 2.10076 64.1755 2.15067 62.6666 3.628L30.8383 34.7905" stroke="#00245E" stroke-width="4"/>
<path d="M23.1673 58.9169L17.7623 53.9255C15.2938 51.6458 15.1784 47.7835 17.5064 45.3605L27.0893 35.3868C28.5985 33.816 31.0871 33.7416 32.6874 35.2195L41.0316 42.9252C42.6773 44.445 42.7542 47.0199 41.2022 48.6352L31.5645 58.666C29.3007 61.0222 25.5678 61.1337 23.1673 58.9169Z" stroke="#00245E" stroke-width="4"/>
<path d="M24.3997 60.6869L12.9175 70.8523C11.4029 72.1932 9.12558 72.1923 7.61208 70.8501L6.08319 69.4943C4.42948 68.0277 4.27865 65.498 5.74639 63.8453L16.1359 52.1471" stroke="#00245E" stroke-width="4"/>
<path d="M0.585786 73.5859C-0.195262 74.3669 -0.195262 75.6333 0.585786 76.4143C1.36683 77.1954 2.63317 77.1954 3.41421 76.4143L0.585786 73.5859ZM4.39461 69.7771L0.585786 73.5859L3.41421 76.4143L7.22304 72.6055L4.39461 69.7771Z" fill="#00245E"/>
</svg>
