<svg width="65" height="91" viewBox="0 0 65 91" fill="none" xmlns="http://www.w3.org/2000/svg">
<path d="M50.8634 12.7757H14.3687H14.1366C12.5453 12.7757 11.0192 13.4079 9.89395 14.5331L3.75736 20.6697C2.63214 21.7949 2 23.321 2 24.9123V75.5866C2 80.1882 4.87078 84.2912 9.34141 85.3815C14.9097 86.7395 23.1787 88.2427 32.5 88.2427C41.8213 88.2427 50.0903 86.7395 55.6586 85.3815C60.1292 84.2912 63 80.1882 63 75.5866V24.9123C63 23.321 62.3679 21.7949 61.2426 20.6697L55.1061 14.5331C53.9808 13.4079 52.4547 12.7757 50.8634 12.7757Z" stroke="#00245E" stroke-width="4"/>
<path d="M21.5837 12.7757V18.2396C21.5837 20.4488 19.7928 22.2396 17.5837 22.2396H15.6528C11.7868 22.2396 8.65283 25.3736 8.65283 29.2396V73.9321C8.65283 75.5878 9.67062 77.0664 11.2509 77.5603C15.2918 78.8233 23.5536 81 32.5 81C39.9916 81 49.0625 78.7592 53.5514 77.5055C55.2251 77.038 56.3471 75.502 56.3471 73.7642V29.2396C56.3471 25.3736 53.2131 22.2396 49.3471 22.2396H48.3533C46.1442 22.2396 44.3533 20.4488 44.3533 18.2396V12.7757M28.0491 12.7757V18.2396C28.0491 20.4488 29.84 22.2396 32.0491 22.2396H33.4193C35.6285 22.2396 37.4193 20.4488 37.4193 18.2396V12.7757M19.8971 12.7757V6.00001C19.8971 3.79087 21.6879 2.00001 23.8971 2.00001H25.6421C27.8512 2.00001 29.6421 3.79087 29.6421 6.00001V12.7757M35.9201 12.7757V6.00001C35.9201 3.79087 37.711 2.00001 39.9201 2.00001H42.0399C44.2491 2.00001 46.0399 3.79087 46.0399 6.00001V12.7757" stroke="#00245E" stroke-width="4"/>
<path d="M33 59C28.6 59 25 55.34 25 50.9C25 48.58 26.14 46.38 28.42 44.52C30.7 42.66 32.42 39.9 33 37C33.58 39.9 35.28 42.68 37.58 44.52C39.88 46.36 41 48.6 41 50.9C41 55.34 37.4 59 33 59Z" stroke="#00245E" stroke-width="4" stroke-linecap="round" stroke-linejoin="round"/>
</svg>
