<svg width="116" height="98" viewBox="0 0 116 98" fill="none" xmlns="http://www.w3.org/2000/svg">
<path d="M44.1559 43.3311L7.34437 63.8771" stroke="#00245E" stroke-width="4"/>
<path d="M25.0898 95.3095L6.16658 62.5336C3.12901 57.2723 4.93163 50.5449 10.1928 47.5073L36.8765 32.1015C37.3548 31.8253 37.9664 31.9892 38.2425 32.4675L48.9001 50.927C49.1763 51.4053 49.0124 52.0169 48.5341 52.2931L27.2561 64.5779C24.3096 66.2791 23.013 69.8527 24.1831 73.0475L31.1318 92.0193C31.2989 92.4757 31.1137 92.9862 30.6928 93.2293L26.4558 95.6755C25.9775 95.9516 25.3659 95.7878 25.0898 95.3095Z" stroke="#00245E" stroke-width="4"/>
<path d="M27.642 64.3551L44.1359 78.859C44.5355 79.2104 44.5899 79.8134 44.2595 80.2306L41.5438 83.6608C41.2145 84.0768 40.6176 84.1632 40.1838 83.8576L23.9383 72.4117M39.6214 33.6499L44.5923 32.294C45.0306 32.1745 45.4943 32.3654 45.7215 32.7588L47.3962 35.6595M48.1637 48.4454L51.8233 44.8184C52.1459 44.4986 52.2125 44.0016 51.9854 43.6082L50.2101 40.5334M47.3962 35.6595L94.4612 9.28519C94.9165 9.03002 95.4915 9.168 95.7815 9.60201L97.7779 12.59C98.1017 13.0746 97.9442 13.7322 97.436 14.0176L50.2101 40.5334M47.3962 35.6595L50.2101 40.5334" stroke="#00245E" stroke-width="4"/>
</svg>
