<svg width="213" height="213" viewBox="0 0 213 213" fill="none" xmlns="http://www.w3.org/2000/svg">
<path fill-rule="evenodd" clip-rule="evenodd" d="M106.5 20C58.7274 20 20 58.7274 20 106.5C20 154.273 58.7274 193 106.5 193C154.273 193 193 154.273 193 106.5C193 58.7274 154.273 20 106.5 20ZM0 106.5C0 47.6817 47.6817 0 106.5 0C165.318 0 213 47.6817 213 106.5C213 165.318 165.318 213 106.5 213C47.6817 213 0 165.318 0 106.5Z" fill="#EDF2F7"/>
<path fill-rule="evenodd" clip-rule="evenodd" d="M29.1701 165.09C33.2041 161.318 39.5322 161.53 43.3043 165.564C59.1033 182.461 81.5631 193 106.5 193C131.437 193 153.897 182.461 169.696 165.564C173.468 161.53 179.796 161.318 183.83 165.09C187.864 168.862 188.076 175.19 184.304 179.224C164.881 199.996 137.202 213 106.5 213C75.7985 213 48.1185 199.996 28.6958 179.224C24.9237 175.19 25.136 168.862 29.1701 165.09Z" fill="#117DF5"/>
</svg>
