<svg width="78" height="82" viewBox="0 0 78 82" fill="none" xmlns="http://www.w3.org/2000/svg">
<path d="M59.4167 56.5583C50.4333 56.5583 43.0833 49.0858 43.0833 40.0208C43.0833 35.2841 45.4108 30.7924 50.0658 26.9949C54.7208 23.1974 58.2325 17.5624 59.4167 11.6416C60.6008 17.5624 64.0717 23.2383 68.7675 26.9949C73.4633 30.7516 75.75 35.3249 75.75 40.0208C75.75 49.0858 68.4 56.5583 59.4167 56.5583Z" stroke="#00245E" stroke-width="4" stroke-linecap="round" stroke-linejoin="round"/>
<path d="M36.7136 16.9499C33.9053 12.4628 31.9145 7.51347 30.8336 2.33154C28.792 12.5399 22.667 22.3399 14.5003 28.8732C6.33364 35.4065 2.25031 43.1649 2.25031 51.3315C2.22698 56.9759 3.88008 62.5001 7.00006 67.2038C10.12 71.9076 14.5664 75.579 19.7754 77.7527C24.9845 79.9264 30.7217 80.5045 36.2597 79.4138C41.7977 78.323 46.8871 75.6124 50.8828 71.6257" stroke="#00245E" stroke-width="4" stroke-linecap="round" stroke-linejoin="round"/>
</svg>
