<svg width="131" height="47" viewBox="0 0 131 47" fill="none" xmlns="http://www.w3.org/2000/svg">
<path fill-rule="evenodd" clip-rule="evenodd" d="M124.775 34.3973L124.74 34.3592C124.072 33.6439 123.754 32.7558 123.754 31.7959V19.9467C123.754 18.4267 123.379 17.614 122.929 17.1789L122.92 17.1703L122.912 17.1616C122.379 16.629 121.665 16.3195 120.624 16.3195C119.584 16.3195 118.803 16.6593 118.166 17.3296C117.552 18.0035 117.204 18.8892 117.204 20.1125V31.7959C117.204 32.7558 116.885 33.6439 116.217 34.3592L116.2 34.3783L116.181 34.3967C115.465 35.1125 114.546 35.419 113.58 35.419C112.621 35.419 111.732 35.1005 111.017 34.4328L110.979 34.3973L110.944 34.3592C110.276 33.6439 109.957 32.7558 109.957 31.7959V19.9467C109.957 18.4267 109.583 17.614 109.133 17.1789L109.124 17.1703L109.115 17.1616C108.583 16.629 107.869 16.3195 106.827 16.3195C105.783 16.3195 105 16.6621 104.362 17.3378C103.723 18.0145 103.366 18.8968 103.366 20.1125V31.7959C103.366 32.7558 103.047 33.6439 102.38 34.3592L102.362 34.3783L102.343 34.3967C101.628 35.1125 100.708 35.419 99.7427 35.419C98.7828 35.419 97.8946 35.1004 97.1793 34.4328L97.1413 34.3973L97.1057 34.3592C96.4381 33.6439 96.1195 32.7558 96.1195 31.7959V13.3593C96.1195 12.3935 96.426 11.4743 97.1419 10.7585L97.1603 10.7401L97.1793 10.7223C97.8946 10.0547 98.7828 9.73613 99.7427 9.73613C100.708 9.73613 101.628 10.0427 102.343 10.7585C102.389 10.8036 102.432 10.8496 102.474 10.8963C102.489 10.8867 102.505 10.8772 102.52 10.8678C104.05 9.93682 105.777 9.48755 107.656 9.48755C109.458 9.48755 111.116 9.88507 112.586 10.7205C113.208 11.0736 113.768 11.4965 114.267 11.9847C114.767 11.5546 115.315 11.1728 115.908 10.8401L115.914 10.837L115.92 10.834C117.576 9.92453 119.433 9.48755 121.452 9.48755C123.255 9.48755 124.913 9.88506 126.383 10.7205C127.878 11.5698 129.017 12.8226 129.802 14.4183C130.625 16.007 131 17.8703 131 19.9467V31.7959C131 32.7558 130.681 33.6439 130.014 34.3592L129.996 34.3783L129.978 34.3967C129.262 35.1125 128.343 35.419 127.377 35.419C126.417 35.419 125.529 35.1004 124.814 34.4328L124.775 34.3973Z" fill="#00245E"/>
<path fill-rule="evenodd" clip-rule="evenodd" d="M29.2104 30.8026L29.2133 30.8089L29.2162 30.8151C29.8423 32.1662 30.7379 33.2786 31.9113 34.1069C33.1202 34.9602 34.5055 35.3776 36.0138 35.3776H36.0966C37.1596 35.3776 38.1753 35.1275 39.0226 34.5032C39.9009 33.856 40.4241 32.9227 40.4241 31.7959C40.4241 30.8785 40.1455 30.0033 39.5021 29.2987C38.8593 28.5622 37.9909 28.2142 37.0495 28.2142H36.0159C35.9927 28.1963 35.9226 28.1334 35.8267 27.9691C35.6123 27.6015 35.4524 27.0432 35.4524 26.2028V3.58171C35.4524 2.62231 35.1327 1.72497 34.4301 1.02235C33.7275 0.31973 32.8301 0 31.8707 0C30.9113 0 30.014 0.31973 29.3114 1.02235C28.6087 1.72497 28.289 2.62231 28.289 3.58171V26.2028C28.289 27.8725 28.5833 29.4162 29.2104 30.8026Z" fill="#00245E"/>
<path fill-rule="evenodd" clip-rule="evenodd" d="M5.88467 33.8199L5.8768 33.8149C4.05482 32.6526 2.61079 31.0947 1.55324 29.1662L1.54631 29.1536L1.53962 29.1408C0.502797 27.1614 0 24.9555 0 22.5569C0 20.1361 0.554338 17.9128 1.69048 15.9245L1.69493 15.9167L1.69947 15.909C2.84985 13.9503 4.4015 12.3954 6.34178 11.268C8.32863 10.102 10.5419 9.52905 12.945 9.52905C15.3461 9.52905 17.5482 10.1011 19.5114 11.2707C21.4507 12.3985 22.9894 13.9548 24.1122 15.9167C25.1152 17.6273 25.6775 19.5137 25.8151 21.5513L25.8486 21.5658V31.7959C25.8486 32.7875 25.4939 33.6877 24.7848 34.3967C24.0822 35.0994 23.1849 35.4191 22.2255 35.4191C21.2655 35.4191 20.3774 35.1005 19.6621 34.4329L19.624 34.3974L19.5885 34.3593C19.3186 34.0701 19.1057 33.7526 18.9478 33.4135C18.7554 33.5522 18.5581 33.686 18.356 33.8149L18.3481 33.8199L18.3402 33.8248C16.4824 34.9779 14.3938 35.5434 12.1164 35.5434C9.83902 35.5434 7.75041 34.9779 5.89259 33.8248L5.88467 33.8199ZM17.9971 25.8155C18.5029 24.8672 18.768 23.7916 18.768 22.5569C18.768 21.2861 18.4994 20.2155 18.0007 19.305L17.9972 19.2984L17.9937 19.2919C17.4811 18.3336 16.798 17.6146 15.9382 17.0987L15.9264 17.0917L15.9148 17.0844C15.0695 16.5561 14.0945 16.2782 12.945 16.2782C11.8294 16.2782 10.8466 16.5531 9.96105 17.0931L9.95644 17.0959L9.95182 17.0987C9.08763 17.6172 8.38624 18.3424 7.84495 19.3103C7.34819 20.2197 7.08056 21.2886 7.08056 22.5569C7.08056 23.7864 7.34342 24.8581 7.84505 25.8034C8.38229 26.7372 9.08329 27.4679 9.95658 28.0178C10.8404 28.5308 11.8255 28.7943 12.945 28.7943C14.101 28.7943 15.0807 28.5267 15.9265 28.0221C16.8008 27.4731 17.4868 26.7449 17.9971 25.8155Z" fill="#00245E"/>
<path fill-rule="evenodd" clip-rule="evenodd" d="M64.3197 29.7786C62.798 32.4578 60.3877 34.5663 57.4895 35.7033C57.2107 36.3227 56.7598 36.8886 56.1506 37.387C55.0137 38.3171 53.5309 38.8205 52.2958 38.8205C50.5974 38.8205 49.5314 38.6373 48.6601 38.3454C47.7625 38.0446 46.865 37.5611 45.5257 36.6797C43.8498 35.5768 41.5973 36.0413 40.4944 37.7171C39.3916 39.393 39.8561 41.6455 41.5319 42.7484C43.0538 43.7499 44.5675 44.6359 46.3519 45.2338C48.1626 45.8406 50.0495 46.0854 52.2958 46.0854C55.2628 46.0854 58.3591 44.9666 60.7507 43.01C63.1912 41.0135 65.0865 37.9682 65.0865 34.1507C65.0865 32.6151 64.8159 31.1427 64.3197 29.7786Z" fill="#117DF5"/>
<path fill-rule="evenodd" clip-rule="evenodd" d="M52.2957 16.9847C49.2439 16.9847 46.77 19.4586 46.77 22.5104C46.77 25.5622 49.2439 28.0361 52.2957 28.0361C55.3475 28.0361 57.8214 25.5622 57.8214 22.5104C57.8214 19.4586 55.3475 16.9847 52.2957 16.9847ZM63.5073 16.349C64.4609 15.6943 65.0864 14.5963 65.0864 13.3522C65.0864 11.346 63.4601 9.71973 61.4539 9.71973H52.2957C45.2316 9.71973 39.5051 15.4463 39.5051 22.5104C39.5051 29.5745 45.2316 35.301 52.2957 35.301C59.3598 35.301 65.0864 29.5745 65.0864 22.5104C65.0864 20.2766 64.5137 18.1765 63.5073 16.349Z" fill="#005BD2"/>
<path fill-rule="evenodd" clip-rule="evenodd" d="M72.8165 33.8199L72.8086 33.8149C70.9866 32.6526 69.5426 31.0947 68.4851 29.1662L68.4781 29.1536L68.4714 29.1408C67.4346 27.1614 66.9318 24.9555 66.9318 22.5569C66.9318 20.1361 67.4862 17.9128 68.6223 15.9245L68.6268 15.9167L68.6313 15.909C69.7817 13.9503 71.3333 12.3954 73.2736 11.268C75.2605 10.102 77.4737 9.52905 79.8768 9.52905C82.2779 9.52905 84.48 10.1011 86.4433 11.2707C88.3825 12.3985 89.9212 13.9548 91.044 15.9167C92.0471 17.6273 92.6093 19.5137 92.7469 21.5513L92.7804 21.5658V31.7959C92.7804 32.7875 92.4257 33.6877 91.7166 34.3967C91.014 35.0994 90.1167 35.4191 89.1573 35.4191C88.1974 35.4191 87.3092 35.1005 86.5939 34.4329L86.5559 34.3974L86.5203 34.3593C86.2504 34.0701 86.0375 33.7526 85.8797 33.4135C85.6872 33.5522 85.4899 33.686 85.2878 33.8149L85.28 33.8199L85.272 33.8248C83.4142 34.9779 81.3256 35.5434 79.0482 35.5434C76.7708 35.5434 74.6822 34.9779 72.8244 33.8248L72.8165 33.8199ZM84.929 25.8155C85.4348 24.8672 85.6999 23.7916 85.6999 22.5569C85.6999 21.2861 85.4312 20.2155 84.9326 19.305L84.929 19.2984L84.9255 19.2919C84.4129 18.3336 83.7298 17.6146 82.87 17.0987L82.8583 17.0917L82.8466 17.0844C82.0013 16.5561 81.0263 16.2782 79.8768 16.2782C78.7612 16.2782 77.7785 16.5531 76.8929 17.0931L76.8883 17.0959L76.8836 17.0987C76.0195 17.6172 75.3181 18.3424 74.7768 19.3103C74.28 20.2197 74.0124 21.2886 74.0124 22.5569C74.0124 23.7864 74.2752 24.8581 74.7769 25.8034C75.3141 26.7372 76.0151 27.4679 76.8884 28.0178C77.7723 28.5308 78.7573 28.7943 79.8768 28.7943C81.0328 28.7943 82.0125 28.5267 82.8584 28.0221C83.7326 27.4731 84.4186 26.7449 84.929 25.8155Z" fill="#00245E"/>
</svg>
