<svg width="99" height="78" viewBox="0 0 99 78" fill="none" xmlns="http://www.w3.org/2000/svg">
<path d="M14.6872 5.66675C14.6872 5.66675 14.2834 12.8297 13.0382 17.2097C11.501 22.6168 6.67032 29.5771 6.67032 29.5771M34.8874 36.9976C31.452 27.7907 17.1427 11.5062 4.79325 32.4629C-8.81095 55.5488 30.7649 93.4756 48.4916 66.6795" stroke="#00245E" stroke-width="4" stroke-linecap="round"/>
<path d="M49.7935 55.8347C49.7238 56.9371 50.5608 57.8873 51.6632 57.957C52.7656 58.0268 53.7158 57.1897 53.7855 56.0874L49.7935 55.8347ZM37.7731 26.6914L36.771 24.9606C35.9224 25.4519 35.5551 26.4861 35.9038 27.4026C36.2525 28.3192 37.2144 28.8477 38.175 28.6506L37.7731 26.6914ZM56.3243 17.2097L57.9417 16.0334L57.6498 15.6319L57.204 15.4136L56.3243 17.2097ZM23.3111 23.5487C22.7137 24.4778 22.9828 25.7152 23.9119 26.3125C24.841 26.9098 26.0785 26.6408 26.6758 25.7117L23.3111 23.5487ZM50.1582 24.5525L49.7706 26.5145L50.1582 24.5525ZM53.7855 56.0874C54.1368 50.5372 53.8559 42.2846 51.7698 35.6648C50.7289 32.3615 49.1732 29.2513 46.8234 27.138C44.3758 24.9368 41.202 23.9464 37.3712 24.7322L38.175 28.6506C40.7753 28.1172 42.655 28.7689 44.1486 30.1122C45.7401 31.5434 47.0135 33.88 47.9548 36.867C49.8331 42.8276 50.1293 50.529 49.7935 55.8347L53.7855 56.0874ZM38.7752 28.4223C40.7134 27.3001 45.3071 25.6327 49.7706 26.5145L50.5459 22.5904C44.8181 21.4588 39.225 23.5398 36.771 24.9606L38.7752 28.4223ZM56.8388 25.0094C57.7735 24.0437 58.7054 22.7414 59.0716 21.168C59.4591 19.5028 59.1662 17.717 57.9417 16.0334L54.7068 18.3861C55.2574 19.1431 55.2965 19.742 55.1757 20.2612C55.0335 20.8722 54.6165 21.5539 53.9646 22.2275L56.8388 25.0094ZM57.204 15.4136C53.5765 13.6368 47.6034 11.9216 41.2914 12.4971C34.8902 13.0808 28.1428 16.0325 23.3111 23.5487L26.6758 25.7117C30.7485 19.3763 36.3 16.9688 41.6546 16.4806C47.0986 15.9843 52.3387 17.4846 55.4445 19.0058L57.204 15.4136ZM49.7706 26.5145C51.6571 26.8872 54.7271 27.1911 56.8388 25.0094L53.9646 22.2275C53.4396 22.7699 52.3786 22.9525 50.5459 22.5904L49.7706 26.5145Z" fill="#00245E"/>
<path d="M26.6424 5.25449L27.0546 21.7444" stroke="#00245E" stroke-width="4" stroke-linecap="round"/>
<path d="M43.1323 61.7325H75.7059H83.2795C86.0409 61.7325 88.2795 59.4939 88.2795 56.7325V51.4263M88.2795 51.4263H94.1122C95.2167 51.4263 96.1122 50.5309 96.1122 49.4263V44.0058M88.2795 51.4263H81.6223C80.5177 51.4263 79.6223 50.5309 79.6223 49.4263V44.0058M79.6223 44.0058L75.5412 38.5644C74.9699 37.8027 74.5331 36.9301 74.4038 35.9868C73.7601 31.2894 76.0618 28.7195 78.986 27.4184C83.0915 25.5918 87.5611 28.0343 90.7384 31.2116L90.8651 31.3383C94.2248 34.6979 96.1122 39.2546 96.1122 44.0058V44.0058M79.6223 44.0058H96.1122" stroke="#00245E" stroke-width="4" stroke-linecap="round"/>
<circle cx="38.1853" cy="60.908" r="4.53473" stroke="#00245E" stroke-width="4" stroke-linecap="round"/>
<ellipse cx="20.6648" cy="5.57055" rx="5.9776" ry="2.78955" stroke="#00245E" stroke-width="4" stroke-linecap="round"/>
<ellipse cx="54.6065" cy="20.9062" rx="2.45521" ry="4.18322" transform="rotate(16.9592 54.6065 20.9062)" stroke="#00245E" stroke-width="4" stroke-linecap="round"/>
</svg>
