<svg width="67" height="68" viewBox="0 0 67 68" fill="none" xmlns="http://www.w3.org/2000/svg">
<path d="M56.0138 54.4438L56.0136 54.444C50.2153 60.2423 42.5175 63.4305 34.3196 63.4305C29.3056 63.4305 24.3244 62.1897 19.919 59.8435L19.9164 59.8421C18.5781 59.1319 16.9933 59.0041 15.5564 59.5069L15.5562 59.507L4.6305 63.3315C4.07776 63.525 3.54641 62.9937 3.7399 62.4409L7.56443 51.5152L7.56452 51.515C8.06705 50.0788 7.94002 48.4915 7.22847 47.1535L7.2279 47.1524C4.88177 42.7471 3.64095 37.7658 3.64095 32.75C3.64095 24.5539 6.8291 16.8544 12.6254 11.058C12.6254 11.058 12.6255 11.0579 12.6256 11.0578M56.0138 54.4438L34.3178 0.0714111C25.5894 0.0732117 17.3847 3.47206 11.2113 9.64361L12.6256 11.0578M56.0138 54.4438C61.8118 48.6475 65 40.9498 65 32.75C65 24.5538 61.8118 16.8543 56.0138 11.058C50.2154 5.26131 42.5175 2.07152 34.3182 2.07141L56.0138 54.4438ZM12.6256 11.0578C18.4239 5.26132 26.1199 2.07321 34.3178 2.07141L12.6256 11.0578Z" stroke="#27AE60" stroke-width="4"/>
<path d="M48.7574 42.3564L48.7576 42.3567C49.0975 42.6965 49.281 43.1387 49.281 43.6207C49.281 44.1007 49.0978 44.543 48.7576 44.8831L48.7573 44.8834L45.2773 48.365C45.2772 48.3651 45.2771 48.3652 45.277 48.3653C44.6802 48.961 43.7884 49.3508 42.4557 49.3508C41.2235 49.3508 39.6683 49.0122 37.8255 48.2218L37.8246 48.2214C34.4426 46.7728 30.6108 44.0611 27.0817 40.5337C27.0816 40.5336 27.0815 40.5335 27.0814 40.5334C27.0813 40.5333 27.0812 40.5332 27.0811 40.5331C23.5536 37.004 20.8419 33.1721 19.3933 29.7901L19.3931 29.7898C17.6745 25.7797 18.1555 23.4325 19.2492 22.3379M48.7574 42.3564L19.2492 22.3379M48.7574 42.3564L44.4071 38.0046M48.7574 42.3564L44.4061 38.0036M19.2492 22.3379L19.2487 22.3385L17.8345 20.9242L19.2492 22.3379ZM44.4061 38.0036L45.8205 36.5896L44.4071 38.0046M44.4061 38.0036C44.4064 38.0039 44.4067 38.0042 44.4071 38.0046M44.4061 38.0036L44.4071 38.0046M22.7293 18.8578L21.3158 17.4429L22.7301 18.8571C22.73 18.8571 22.73 18.8572 22.7299 18.8572C22.7297 18.8574 22.7295 18.8576 22.7293 18.8578ZM25.2588 18.8578L25.2578 18.8568L26.6723 17.4429L25.2588 18.8578Z" stroke="#27AE60" stroke-width="4"/>
</svg>
